<svg width="20" height="22" viewBox="0 0 20 22" fill="none" xmlns="http://www.w3.org/2000/svg" id="loupe">
<g clip-path="url(#clip0_511_8153)">
<path fill-rule="evenodd" clip-rule="evenodd" d="M13.0524 14.2051C13.1685 14.0831 13.3063 13.9863 13.4581 13.9202C13.6098 13.8542 13.7725 13.8202 13.9367 13.8202C14.101 13.8202 14.2637 13.8542 14.4154 13.9202C14.5672 13.9863 14.705 14.0831 14.8211 14.2051L19.6336 19.2583C19.8682 19.5044 20 19.8382 20.0001 20.1864C20.0002 20.5346 19.8686 20.8685 19.6342 21.1148C19.3999 21.3611 19.0819 21.4995 18.7503 21.4996C18.4187 21.4997 18.1007 21.3615 17.8661 21.1154L13.0536 16.0623C12.9374 15.9404 12.8452 15.7957 12.7823 15.6363C12.7194 15.477 12.687 15.3062 12.687 15.1337C12.687 14.9612 12.7194 14.7904 12.7823 14.6311C12.8452 14.4718 12.9374 14.327 13.0536 14.2051H13.0524Z" fill="#BDBDBD"/>
<path fill-rule="evenodd" clip-rule="evenodd" d="M8.125 16.25C9.02784 16.25 9.92184 16.0633 10.7559 15.7005C11.5901 15.3377 12.348 14.806 12.9864 14.1357C13.6248 13.4654 14.1312 12.6696 14.4767 11.7937C14.8222 10.9179 15 9.97923 15 9.03125C15 8.08327 14.8222 7.14457 14.4767 6.26875C14.1312 5.39294 13.6248 4.59715 12.9864 3.92682C12.348 3.2565 11.5901 2.72477 10.7559 2.36199C9.92184 1.99922 9.02784 1.8125 8.125 1.8125C6.30164 1.8125 4.55295 2.57304 3.26364 3.92682C1.97433 5.2806 1.25 7.11672 1.25 9.03125C1.25 10.9458 1.97433 12.7819 3.26364 14.1357C4.55295 15.4895 6.30164 16.25 8.125 16.25ZM16.25 9.03125C16.25 11.2939 15.394 13.4638 13.8702 15.0638C12.3465 16.6637 10.2799 17.5625 8.125 17.5625C5.97012 17.5625 3.90349 16.6637 2.37976 15.0638C0.856024 13.4638 0 11.2939 0 9.03125C0 6.76862 0.856024 4.59867 2.37976 2.99875C3.90349 1.39883 5.97012 0.5 8.125 0.5C10.2799 0.5 12.3465 1.39883 13.8702 2.99875C15.394 4.59867 16.25 6.76862 16.25 9.03125Z" fill="#BDBDBD"/>
</g>
<defs>
<clipPath id="clip0_511_8153">
<rect width="20" height="21" fill="white" transform="translate(0 0.5)"/>
</clipPath>
</defs>
</svg>
