<svg width="52" height="51" viewBox="0 0 52 51" fill="none" xmlns="http://www.w3.org/2000/svg" id="row-icon">
<rect x="0.712402" width="51.2877" height="51" rx="5" fill="currentColor"/>
<g clip-path="url(#clip0_511_5871)">
<path d="M19.6358 29.9384L19.6349 29.9375C19.611 29.9128 19.5834 29.894 19.5541 29.8815L19.7506 29.4218L19.5541 29.8815C19.5248 29.869 19.494 29.8628 19.4632 29.8628C19.4324 29.8628 19.4016 29.869 19.3723 29.8815L19.1757 29.4218L19.3723 29.8815C19.343 29.894 19.3154 29.9128 19.2914 29.9375L19.2911 29.9378L17.5722 31.7103L17.2122 32.0816L16.8533 31.7093L16.6355 31.4833C16.6354 31.4832 16.6352 31.483 16.6351 31.4829C16.5869 31.4334 16.5248 31.4085 16.4633 31.4085C16.4017 31.4085 16.3394 31.4336 16.2911 31.4833C16.2423 31.5336 16.2124 31.6048 16.2124 31.6821C16.2124 31.7594 16.2423 31.8307 16.2911 31.8809L17.0411 32.6536L17.0415 32.6541C17.0655 32.6788 17.0931 32.6975 17.1224 32.7101C17.1224 32.7101 17.1224 32.7101 17.1224 32.7101L16.9258 33.1698C17.017 33.2088 17.1146 33.2288 17.2133 33.2288C17.3119 33.2288 17.4096 33.2088 17.5007 33.1698L19.6358 29.9384ZM19.6358 29.9384C19.6598 29.9631 19.6796 29.9932 19.6934 30.0275L20.1572 29.8407L19.6358 29.9384ZM19.6349 17.5749L19.6358 17.5758C19.6598 17.6005 19.6796 17.6306 19.6934 17.6648L19.6934 17.6648C19.7072 17.6991 19.7145 17.7363 19.7145 17.7742C19.7145 17.8121 19.7072 17.8493 19.6934 17.8835L19.6934 17.8835C19.6796 17.9177 19.6598 17.9478 19.6358 17.9725L19.6354 17.973L17.3855 20.291L17.385 20.2914C17.3611 20.3161 17.3335 20.3349 17.3042 20.3475C17.2749 20.36 17.2441 20.3662 17.2133 20.3662C17.1825 20.3662 17.1517 20.36 17.1224 20.3475L16.9258 20.8072L17.1224 20.3475C17.0931 20.3349 17.0655 20.3161 17.0415 20.2914L17.0411 20.291L16.2911 19.5183L15.9445 19.8547L16.2911 19.5183C16.2671 19.4935 16.2473 19.4633 16.2335 19.429C16.2197 19.3947 16.2124 19.3575 16.2124 19.3195C16.2124 19.2815 16.2197 19.2443 16.2335 19.21C16.2473 19.1757 16.2671 19.1455 16.2911 19.1207L15.9323 18.7725L16.2911 19.1207C16.3151 19.096 16.3428 19.0772 16.3722 19.0646C16.4016 19.0521 16.4325 19.0459 16.4633 19.0459C16.4942 19.0459 16.5251 19.0521 16.5544 19.0646C16.5836 19.0771 16.6112 19.0957 16.6351 19.1202C16.6352 19.1204 16.6354 19.1205 16.6355 19.1207L16.8533 19.3466L17.2122 19.7189L17.5722 19.3477L19.2911 17.5752L19.2914 17.5749C19.3154 17.5502 19.343 17.5314 19.3723 17.5189C19.4016 17.5064 19.4324 17.5001 19.4632 17.5001C19.494 17.5001 19.5248 17.5064 19.5541 17.5189C19.5834 17.5314 19.611 17.5502 19.6349 17.5749ZM19.6349 23.7562L19.6358 23.7571C19.6598 23.7818 19.6796 23.8119 19.6934 23.8461L20.1572 23.6593L19.6934 23.8461C19.7072 23.8804 19.7145 23.9176 19.7145 23.9555C19.7145 23.9934 19.7072 24.0306 19.6934 24.0648L20.1572 24.2516L19.6934 24.0648C19.6796 24.099 19.6598 24.1292 19.6358 24.1538L19.6354 24.1543L17.3855 26.4723L17.385 26.4727C17.3611 26.4974 17.3335 26.5162 17.3042 26.5288C17.2749 26.5413 17.2441 26.5475 17.2133 26.5475C17.1825 26.5475 17.1517 26.5413 17.1224 26.5288C17.0931 26.5162 17.0655 26.4974 17.0415 26.4727L17.0411 26.4723L16.2911 25.6996C16.2423 25.6494 16.2124 25.5781 16.2124 25.5008C16.2124 25.4235 16.2423 25.3523 16.2911 25.302L15.9323 24.9538L16.2911 25.302C16.3394 25.2523 16.4017 25.2272 16.4633 25.2272C16.5248 25.2272 16.5868 25.2521 16.635 25.3015C16.6352 25.3017 16.6354 25.3019 16.6355 25.302L16.8533 25.5279L17.2122 25.9002L17.5722 25.529L19.2911 23.7565L19.2914 23.7562C19.3154 23.7315 19.343 23.7127 19.3723 23.7002L19.1757 23.2404L19.3723 23.7002C19.4016 23.6877 19.4324 23.6814 19.4632 23.6814C19.494 23.6814 19.5248 23.6877 19.5541 23.7002L19.7506 23.2404L19.5541 23.7002C19.5834 23.7127 19.611 23.7315 19.6349 23.7562ZM22.2131 31.6821C22.2131 31.6051 22.2429 31.5341 22.2915 31.484C22.3396 31.4345 22.4016 31.4095 22.463 31.4095H35.9624C36.0238 31.4095 36.0859 31.4345 36.134 31.484C36.1826 31.5341 36.2124 31.6051 36.2124 31.6821C36.2124 31.7592 36.1826 31.8302 36.134 31.8802C36.0859 31.9298 36.0238 31.9548 35.9624 31.9548H22.463C22.4016 31.9548 22.3396 31.9298 22.2915 31.8802C22.2429 31.8302 22.2131 31.7592 22.2131 31.6821ZM22.2131 25.5008C22.2131 25.4238 22.2429 25.3528 22.2915 25.3027C22.3396 25.2531 22.4016 25.2281 22.463 25.2281H35.9624C36.0238 25.2281 36.0859 25.2531 36.134 25.3027C36.1826 25.3528 36.2124 25.4238 36.2124 25.5008C36.2124 25.5779 36.1826 25.6489 36.134 25.6989C36.0859 25.7485 36.0238 25.7735 35.9624 25.7735H22.463C22.4016 25.7735 22.3396 25.7485 22.2915 25.6989C22.2429 25.6489 22.2131 25.5779 22.2131 25.5008ZM22.2131 19.3195C22.2131 19.2425 22.2429 19.1715 22.2915 19.1214C22.3396 19.0718 22.4016 19.0468 22.463 19.0468H35.9624C36.0238 19.0468 36.0859 19.0718 36.134 19.1214C36.1826 19.1715 36.2124 19.2424 36.2124 19.3195C36.2124 19.3965 36.1826 19.4675 36.134 19.5176C36.0859 19.5672 36.0238 19.5922 35.9624 19.5922H22.463C22.4016 19.5922 22.3396 19.5672 22.2915 19.5176C22.2429 19.4675 22.2131 19.3965 22.2131 19.3195Z" fill="#252B42" stroke="#252B42"/>
</g>
<defs>
<clipPath id="clip0_511_5871">
<rect width="21" height="17" fill="white" transform="translate(15.7124 17.0001)"/>
</clipPath>
</defs>
</svg>
